{
	"asset":{
		"generator":"Khronos glTF Blender I/O v4.1.62",
		"version":"2.0"
	},
	"scene":0,
	"scenes":[
		{
			"name":"Scene",
			"nodes":[
				37
			]
		}
	],
	"nodes":[
		{
			"name":"head0",
			"rotation":[
				0.785769522190094,
				-0.0010325292823836207,
				0.028515290468931198,
				0.6178609132766724
			],
			"translation":[
				7.450580596923828e-09,
				7.768598556518555,
				2.1546147763729095e-06
			]
		},
		{
			"children":[
				0
			],
			"name":"neck1",
			"rotation":[
				-0.1675063818693161,
				0.0010493654990568757,
				-0.0018004428129643202,
				0.9858688116073608
			],
			"scale":[
				0.9999998211860657,
				0.9999998211860657,
				0.9999997615814209
			],
			"translation":[
				0,
				6.922013759613037,
				-3.5543926060199738e-06
			]
		},
		{
			"children":[
				1
			],
			"name":"neck0",
			"rotation":[
				-0.4214553236961365,
				0.0039035652298480272,
				-0.001171410665847361,
				0.9068400263786316
			],
			"scale":[
				1,
				1.0000001192092896,
				1.0000001192092896
			],
			"translation":[
				-1.2665987014770508e-07,
				8.428159713745117,
				-9.009148925542831e-06
			]
		},
		{
			"name":"leg_front_left_toe",
			"rotation":[
				-0.6183165907859802,
				0.07038883119821548,
				0.07038852572441101,
				0.7795995473861694
			],
			"scale":[
				1,
				1.0000001192092896,
				1
			],
			"translation":[
				-2.9802322387695312e-08,
				5.544218063354492,
				8.940696716308594e-07
			]
		},
		{
			"children":[
				3
			],
			"name":"leg_front_left_ankle",
			"rotation":[
				-0.1505296230316162,
				-0.43733254075050354,
				-0.035297974944114685,
				0.8859091997146606
			],
			"scale":[
				1,
				1,
				1.0000001192092896
			],
			"translation":[
				3.2186508178710938e-06,
				8.8345947265625,
				2.384185791015625e-07
			]
		},
		{
			"children":[
				4
			],
			"name":"leg_front_left_bot0",
			"rotation":[
				0.015209675766527653,
				-0.9775655269622803,
				0.05184861645102501,
				0.20358304679393768
			],
			"scale":[
				0.9999999403953552,
				0.9999999403953552,
				1
			],
			"translation":[
				-1.519918441772461e-06,
				6.231251239776611,
				1.6391277313232422e-06
			]
		},
		{
			"children":[
				5
			],
			"name":"leg_front_left_top1",
			"rotation":[
				0.061432186514139175,
				-0.8620392084121704,
				-0.27284473180770874,
				0.42269405722618103
			],
			"scale":[
				1.0000001192092896,
				0.9999999403953552,
				1
			],
			"translation":[
				-8.940696716308594e-07,
				9.019104957580566,
				-9.5367431640625e-07
			]
		},
		{
			"children":[
				6
			],
			"name":"leg_front_left_top0",
			"rotation":[
				0.44992777705192566,
				-0.2188570201396942,
				-0.20941609144210815,
				0.8401258587837219
			],
			"translation":[
				3.665876626968384,
				2.064863920211792,
				4.86752986907959
			]
		},
		{
			"name":"leg_front_right_toe",
			"rotation":[
				-0.4812009632587433,
				-0.39624711871147156,
				-0.39624738693237305,
				0.6741082072257996
			],
			"scale":[
				1,
				1,
				0.9999999403953552
			],
			"translation":[
				-1.1920928955078125e-06,
				5.608720302581787,
				0
			]
		},
		{
			"children":[
				8
			],
			"name":"leg_front_right_ankle",
			"rotation":[
				-0.16650494933128357,
				0.9522809386253357,
				0.044791705906391144,
				0.25185462832450867
			],
			"scale":[
				1,
				1.0000001192092896,
				0.9999998807907104
			],
			"translation":[
				-9.5367431640625e-07,
				8.904415130615234,
				-4.76837158203125e-07
			]
		},
		{
			"children":[
				9
			],
			"name":"leg_front_right_bot0",
			"rotation":[
				0.07838873565196991,
				0.03830968588590622,
				-0.06997955590486526,
				0.993725597858429
			],
			"scale":[
				0.9999999403953552,
				0.9999999403953552,
				0.9999999403953552
			],
			"translation":[
				-8.642673492431641e-07,
				6.234728813171387,
				-2.682209014892578e-07
			]
		},
		{
			"children":[
				10
			],
			"name":"leg_front_right_top1",
			"rotation":[
				0.1731373518705368,
				-0.8406691551208496,
				-0.19044283032417297,
				0.4764770269393921
			],
			"scale":[
				1,
				1,
				0.9999999403953552
			],
			"translation":[
				2.384185791015625e-07,
				9.027726173400879,
				2.384185791015625e-07
			]
		},
		{
			"children":[
				11
			],
			"name":"leg_front_right_top0",
			"rotation":[
				0.446972519159317,
				0.21036018431186676,
				0.2117229849100113,
				0.8432897329330444
			],
			"scale":[
				1,
				1,
				0.9999999403953552
			],
			"translation":[
				-3.932448148727417,
				2.1550328731536865,
				4.775639533996582
			]
		},
		{
			"children":[
				2,
				7,
				12
			],
			"name":"body_top1",
			"rotation":[
				-0.09005536139011383,
				-0.0014772892463952303,
				-0.0025183865800499916,
				0.9959325194358826
			],
			"scale":[
				1,
				0.9999999403953552,
				0.9999999403953552
			],
			"translation":[
				-3.725290298461914e-08,
				7.016116619110107,
				1.0244548320770264e-08
			]
		},
		{
			"children":[
				13
			],
			"name":"body_top0",
			"rotation":[
				0.028390321880578995,
				0.010328797623515129,
				0.008864117786288261,
				0.9995042681694031
			],
			"scale":[
				0.9999999403953552,
				1,
				1.0000001192092896
			],
			"translation":[
				-0.005139024928212166,
				7.167177200317383,
				-1.5134100914001465
			]
		},
		{
			"name":"tail6",
			"rotation":[
				-0.04338325932621956,
				0.04092768207192421,
				-0.040122684091329575,
				0.997413158416748
			],
			"scale":[
				0.9999999403953552,
				1,
				1
			],
			"translation":[
				-5.960464477539063e-08,
				4.110357761383057,
				-4.5821070671081543e-07
			]
		},
		{
			"children":[
				15
			],
			"name":"tail5",
			"rotation":[
				0.0032567346934229136,
				0.0015290995361283422,
				-0.0013205797877162695,
				0.9999926686286926
			],
			"translation":[
				3.725290298461914e-08,
				4.462624549865723,
				-4.284083843231201e-07
			]
		},
		{
			"children":[
				16
			],
			"name":"tail4",
			"rotation":[
				0.008058865554630756,
				0.0053161694668233395,
				-0.004701212048530579,
				0.9999423623085022
			],
			"scale":[
				0.9999999403953552,
				1,
				0.9999998807907104
			],
			"translation":[
				-7.450580596923828e-09,
				4.215740203857422,
				-4.4330954551696777e-07
			]
		},
		{
			"children":[
				17
			],
			"name":"tail3",
			"rotation":[
				0.05218423902988434,
				-0.011439376510679722,
				0.01177147589623928,
				0.9985025525093079
			],
			"scale":[
				1.0000001192092896,
				1,
				1
			],
			"translation":[
				1.4901161193847656e-08,
				3.4728264808654785,
				2.384185791015625e-07
			]
		},
		{
			"children":[
				18
			],
			"name":"tail2",
			"rotation":[
				-0.004014941863715649,
				0.011295262724161148,
				-0.00953209213912487,
				0.9998827576637268
			],
			"scale":[
				0.9999999403953552,
				1,
				0.9999999403953552
			],
			"translation":[
				-5.960464477539063e-08,
				3.918691635131836,
				-7.878988981246948e-07
			]
		},
		{
			"children":[
				19
			],
			"name":"tail1",
			"rotation":[
				0.05670296773314476,
				0.0015371559420600533,
				0.0001277149422094226,
				0.9983898997306824
			],
			"scale":[
				0.9999999403953552,
				1.0000001192092896,
				0.9999999403953552
			],
			"translation":[
				1.4901161193847656e-08,
				5.576427936553955,
				1.1883676052093506e-06
			]
		},
		{
			"children":[
				20
			],
			"name":"tail0",
			"rotation":[
				0.007145451381802559,
				-0.04358720779418945,
				0.03254494443535805,
				0.9984938502311707
			],
			"scale":[
				1.0000001192092896,
				1,
				1
			],
			"translation":[
				-2.980232238769531e-07,
				6.272425651550293,
				7.301568984985352e-07
			]
		},
		{
			"children":[
				21
			],
			"name":"pelvis",
			"rotation":[
				0.3560313880443573,
				0.08095903694629669,
				-0.027258241549134254,
				0.9305612444877625
			],
			"scale":[
				1,
				1,
				0.9999999403953552
			],
			"translation":[
				0.4601272642612457,
				3.495607614517212,
				5.007741451263428
			]
		},
		{
			"name":"leg_hind_right_toe",
			"rotation":[
				-0.5888983011245728,
				-0.1056886538863182,
				-0.10568906366825104,
				0.7942660450935364
			],
			"scale":[
				0.9999998211860657,
				1,
				0.9999998807907104
			],
			"translation":[
				-1.1920928955078125e-07,
				11.066737174987793,
				8.344650268554688e-07
			]
		},
		{
			"children":[
				23
			],
			"name":"leg_hind_right_ankle",
			"rotation":[
				-0.40519875288009644,
				0.17317916452884674,
				-0.036210380494594574,
				0.8969458341598511
			],
			"scale":[
				0.9999998211860657,
				1,
				0.9999999403953552
			],
			"translation":[
				7.450580596923828e-08,
				5.995750427246094,
				5.960464477539063e-08
			]
		},
		{
			"children":[
				24
			],
			"name":"leg_hind_right_bot0",
			"rotation":[
				0.08087899535894394,
				0.3127823770046234,
				-0.09079162776470184,
				0.9420098662376404
			],
			"scale":[
				1,
				0.9999998807907104,
				1
			],
			"translation":[
				5.364418029785156e-07,
				9.703547477722168,
				-4.76837158203125e-07
			]
		},
		{
			"children":[
				25
			],
			"name":"leg_hind_right_top1",
			"rotation":[
				-0.4357871413230896,
				0.8989695906639099,
				-0.0035766256041824818,
				0.04393719136714935
			],
			"scale":[
				0.9999999403953552,
				1.0000001192092896,
				0.9999999403953552
			],
			"translation":[
				3.427267074584961e-07,
				5.409809112548828,
				1.1622905731201172e-06
			]
		},
		{
			"children":[
				26
			],
			"name":"leg_hind_right_top0",
			"rotation":[
				-0.4857165813446045,
				0.8171569108963013,
				-0.21632148325443268,
				0.2225736826658249
			],
			"scale":[
				1,
				1.000000238418579,
				1
			],
			"translation":[
				-1.043081283569336e-07,
				5.807912826538086,
				-8.223578333854675e-07
			]
		},
		{
			"name":"leg_hind_left_toe",
			"rotation":[
				-0.5419504046440125,
				0.18436221778392792,
				0.1843622922897339,
				0.7989436388015747
			],
			"scale":[
				1,
				0.9999999403953552,
				0.9999999403953552
			],
			"translation":[
				9.5367431640625e-07,
				11.349586486816406,
				4.76837158203125e-07
			]
		},
		{
			"children":[
				28
			],
			"name":"leg_hind_left_ankle",
			"rotation":[
				-0.4623235762119293,
				-0.3406262695789337,
				0.06184809282422066,
				0.8163366317749023
			],
			"scale":[
				0.9999999403953552,
				0.9999998211860657,
				0.9999998807907104
			],
			"translation":[
				-4.172325134277344e-07,
				6.291283130645752,
				-2.980232238769531e-07
			]
		},
		{
			"children":[
				29
			],
			"name":"leg_hind_left_bot0",
			"rotation":[
				0.15014931559562683,
				-0.23185622692108154,
				0.09064551442861557,
				0.9568078517913818
			],
			"scale":[
				0.9999999403953552,
				1.0000001192092896,
				1.0000001192092896
			],
			"translation":[
				5.960464477539063e-08,
				9.48944091796875,
				0
			]
		},
		{
			"children":[
				30
			],
			"name":"leg_hind_left_top1",
			"rotation":[
				0.42150676250457764,
				0.9066690802574158,
				0.01675235480070114,
				0.0016250963089987636
			],
			"scale":[
				1,
				1,
				0.9999999403953552
			],
			"translation":[
				-6.258487701416016e-07,
				5.2746148109436035,
				1.7136335372924805e-07
			]
		},
		{
			"children":[
				31
			],
			"name":"leg_hind_left_top0",
			"rotation":[
				-0.4808489680290222,
				-0.8044154047966003,
				0.22677351534366608,
				0.26509231328964233
			],
			"scale":[
				1,
				0.9999995827674866,
				0.9999998807907104
			],
			"translation":[
				0.6754453182220459,
				5.807985305786133,
				-0.025012414902448654
			]
		},
		{
			"children":[
				22,
				27,
				32
			],
			"name":"body_bot",
			"rotation":[
				0.8309317827224731,
				-0.008233284577727318,
				-0.009728752076625824,
				0.5562283992767334
			],
			"scale":[
				0.9999999403953552,
				1,
				1
			],
			"translation":[
				0.24751730263233185,
				-5.912309169769287,
				1.9279626607894897
			]
		},
		{
			"children":[
				14,
				33
			],
			"name":"body",
			"rotation":[
				0.7556450366973877,
				-1.1862685944663554e-08,
				-0.002357515739277005,
				0.6549771428108215
			],
			"translation":[
				0.271658331155777,
				35.489891052246094,
				4.326775074005127
			]
		},
		{
			"children":[
				34
			],
			"name":"root",
			"rotation":[
				-0.7071031928062439,
				0,
				0,
				0.7071103453636169
			],
			"translation":[
				-0.6940450668334961,
				-0.15273284912109375,
				26.080333709716797
			]
		},
		{
			"mesh":0,
			"name":"12221_Cat_v1_l3",
			"skin":0
		},
		{
			"children":[
				36,
				35
			],
			"name":"rig",
			"rotation":[
				0.7071068286895752,
				0,
				0,
				0.7071068286895752
			]
		}
	],
	"animations":[
		{
			"channels":[
				{
					"sampler":0,
					"target":{
						"node":35,
						"path":"translation"
					}
				},
				{
					"sampler":1,
					"target":{
						"node":35,
						"path":"rotation"
					}
				},
				{
					"sampler":2,
					"target":{
						"node":35,
						"path":"scale"
					}
				},
				{
					"sampler":3,
					"target":{
						"node":34,
						"path":"translation"
					}
				},
				{
					"sampler":4,
					"target":{
						"node":34,
						"path":"rotation"
					}
				},
				{
					"sampler":5,
					"target":{
						"node":34,
						"path":"scale"
					}
				},
				{
					"sampler":6,
					"target":{
						"node":14,
						"path":"translation"
					}
				},
				{
					"sampler":7,
					"target":{
						"node":14,
						"path":"rotation"
					}
				},
				{
					"sampler":8,
					"target":{
						"node":14,
						"path":"scale"
					}
				},
				{
					"sampler":9,
					"target":{
						"node":13,
						"path":"translation"
					}
				},
				{
					"sampler":10,
					"target":{
						"node":13,
						"path":"rotation"
					}
				},
				{
					"sampler":11,
					"target":{
						"node":13,
						"path":"scale"
					}
				},
				{
					"sampler":12,
					"target":{
						"node":2,
						"path":"translation"
					}
				},
				{
					"sampler":13,
					"target":{
						"node":2,
						"path":"rotation"
					}
				},
				{
					"sampler":14,
					"target":{
						"node":2,
						"path":"scale"
					}
				},
				{
					"sampler":15,
					"target":{
						"node":1,
						"path":"translation"
					}
				},
				{
					"sampler":16,
					"target":{
						"node":1,
						"path":"rotation"
					}
				},
				{
					"sampler":17,
					"target":{
						"node":1,
						"path":"scale"
					}
				},
				{
					"sampler":18,
					"target":{
						"node":0,
						"path":"translation"
					}
				},
				{
					"sampler":19,
					"target":{
						"node":0,
						"path":"rotation"
					}
				},
				{
					"sampler":20,
					"target":{
						"node":0,
						"path":"scale"
					}
				},
				{
					"sampler":21,
					"target":{
						"node":7,
						"path":"translation"
					}
				},
				{
					"sampler":22,
					"target":{
						"node":7,
						"path":"rotation"
					}
				},
				{
					"sampler":23,
					"target":{
						"node":7,
						"path":"scale"
					}
				},
				{
					"sampler":24,
					"target":{
						"node":6,
						"path":"translation"
					}
				},
				{
					"sampler":25,
					"target":{
						"node":6,
						"path":"rotation"
					}
				},
				{
					"sampler":26,
					"target":{
						"node":6,
						"path":"scale"
					}
				},
				{
					"sampler":27,
					"target":{
						"node":5,
						"path":"translation"
					}
				},
				{
					"sampler":28,
					"target":{
						"node":5,
						"path":"rotation"
					}
				},
				{
					"sampler":29,
					"target":{
						"node":5,
						"path":"scale"
					}
				},
				{
					"sampler":30,
					"target":{
						"node":4,
						"path":"translation"
					}
				},
				{
					"sampler":31,
					"target":{
						"node":4,
						"path":"rotation"
					}
				},
				{
					"sampler":32,
					"target":{
						"node":4,
						"path":"scale"
					}
				},
				{
					"sampler":33,
					"target":{
						"node":3,
						"path":"translation"
					}
				},
				{
					"sampler":34,
					"target":{
						"node":3,
						"path":"rotation"
					}
				},
				{
					"sampler":35,
					"target":{
						"node":3,
						"path":"scale"
					}
				},
				{
					"sampler":36,
					"target":{
						"node":12,
						"path":"translation"
					}
				},
				{
					"sampler":37,
					"target":{
						"node":12,
						"path":"rotation"
					}
				},
				{
					"sampler":38,
					"target":{
						"node":12,
						"path":"scale"
					}
				},
				{
					"sampler":39,
					"target":{
						"node":11,
						"path":"translation"
					}
				},
				{
					"sampler":40,
					"target":{
						"node":11,
						"path":"rotation"
					}
				},
				{
					"sampler":41,
					"target":{
						"node":11,
						"path":"scale"
					}
				},
				{
					"sampler":42,
					"target":{
						"node":10,
						"path":"translation"
					}
				},
				{
					"sampler":43,
					"target":{
						"node":10,
						"path":"rotation"
					}
				},
				{
					"sampler":44,
					"target":{
						"node":10,
						"path":"scale"
					}
				},
				{
					"sampler":45,
					"target":{
						"node":9,
						"path":"translation"
					}
				},
				{
					"sampler":46,
					"target":{
						"node":9,
						"path":"rotation"
					}
				},
				{
					"sampler":47,
					"target":{
						"node":9,
						"path":"scale"
					}
				},
				{
					"sampler":48,
					"target":{
						"node":8,
						"path":"translation"
					}
				},
				{
					"sampler":49,
					"target":{
						"node":8,
						"path":"rotation"
					}
				},
				{
					"sampler":50,
					"target":{
						"node":8,
						"path":"scale"
					}
				},
				{
					"sampler":51,
					"target":{
						"node":33,
						"path":"translation"
					}
				},
				{
					"sampler":52,
					"target":{
						"node":33,
						"path":"rotation"
					}
				},
				{
					"sampler":53,
					"target":{
						"node":33,
						"path":"scale"
					}
				},
				{
					"sampler":54,
					"target":{
						"node":22,
						"path":"translation"
					}
				},
				{
					"sampler":55,
					"target":{
						"node":22,
						"path":"rotation"
					}
				},
				{
					"sampler":56,
					"target":{
						"node":22,
						"path":"scale"
					}
				},
				{
					"sampler":57,
					"target":{
						"node":21,
						"path":"translation"
					}
				},
				{
					"sampler":58,
					"target":{
						"node":21,
						"path":"rotation"
					}
				},
				{
					"sampler":59,
					"target":{
						"node":21,
						"path":"scale"
					}
				},
				{
					"sampler":60,
					"target":{
						"node":20,
						"path":"translation"
					}
				},
				{
					"sampler":61,
					"target":{
						"node":20,
						"path":"rotation"
					}
				},
				{
					"sampler":62,
					"target":{
						"node":20,
						"path":"scale"
					}
				},
				{
					"sampler":63,
					"target":{
						"node":19,
						"path":"translation"
					}
				},
				{
					"sampler":64,
					"target":{
						"node":19,
						"path":"rotation"
					}
				},
				{
					"sampler":65,
					"target":{
						"node":19,
						"path":"scale"
					}
				},
				{
					"sampler":66,
					"target":{
						"node":18,
						"path":"translation"
					}
				},
				{
					"sampler":67,
					"target":{
						"node":18,
						"path":"rotation"
					}
				},
				{
					"sampler":68,
					"target":{
						"node":18,
						"path":"scale"
					}
				},
				{
					"sampler":69,
					"target":{
						"node":17,
						"path":"translation"
					}
				},
				{
					"sampler":70,
					"target":{
						"node":17,
						"path":"rotation"
					}
				},
				{
					"sampler":71,
					"target":{
						"node":17,
						"path":"scale"
					}
				},
				{
					"sampler":72,
					"target":{
						"node":16,
						"path":"translation"
					}
				},
				{
					"sampler":73,
					"target":{
						"node":16,
						"path":"rotation"
					}
				},
				{
					"sampler":74,
					"target":{
						"node":16,
						"path":"scale"
					}
				},
				{
					"sampler":75,
					"target":{
						"node":15,
						"path":"translation"
					}
				},
				{
					"sampler":76,
					"target":{
						"node":15,
						"path":"rotation"
					}
				},
				{
					"sampler":77,
					"target":{
						"node":15,
						"path":"scale"
					}
				},
				{
					"sampler":78,
					"target":{
						"node":27,
						"path":"translation"
					}
				},
				{
					"sampler":79,
					"target":{
						"node":27,
						"path":"rotation"
					}
				},
				{
					"sampler":80,
					"target":{
						"node":27,
						"path":"scale"
					}
				},
				{
					"sampler":81,
					"target":{
						"node":26,
						"path":"translation"
					}
				},
				{
					"sampler":82,
					"target":{
						"node":26,
						"path":"rotation"
					}
				},
				{
					"sampler":83,
					"target":{
						"node":26,
						"path":"scale"
					}
				},
				{
					"sampler":84,
					"target":{
						"node":25,
						"path":"translation"
					}
				},
				{
					"sampler":85,
					"target":{
						"node":25,
						"path":"rotation"
					}
				},
				{
					"sampler":86,
					"target":{
						"node":25,
						"path":"scale"
					}
				},
				{
					"sampler":87,
					"target":{
						"node":24,
						"path":"translation"
					}
				},
				{
					"sampler":88,
					"target":{
						"node":24,
						"path":"rotation"
					}
				},
				{
					"sampler":89,
					"target":{
						"node":24,
						"path":"scale"
					}
				},
				{
					"sampler":90,
					"target":{
						"node":23,
						"path":"translation"
					}
				},
				{
					"sampler":91,
					"target":{
						"node":23,
						"path":"rotation"
					}
				},
				{
					"sampler":92,
					"target":{
						"node":23,
						"path":"scale"
					}
				},
				{
					"sampler":93,
					"target":{
						"node":32,
						"path":"translation"
					}
				},
				{
					"sampler":94,
					"target":{
						"node":32,
						"path":"rotation"
					}
				},
				{
					"sampler":95,
					"target":{
						"node":32,
						"path":"scale"
					}
				},
				{
					"sampler":96,
					"target":{
						"node":31,
						"path":"translation"
					}
				},
				{
					"sampler":97,
					"target":{
						"node":31,
						"path":"rotation"
					}
				},
				{
					"sampler":98,
					"target":{
						"node":31,
						"path":"scale"
					}
				},
				{
					"sampler":99,
					"target":{
						"node":30,
						"path":"translation"
					}
				},
				{
					"sampler":100,
					"target":{
						"node":30,
						"path":"rotation"
					}
				},
				{
					"sampler":101,
					"target":{
						"node":30,
						"path":"scale"
					}
				},
				{
					"sampler":102,
					"target":{
						"node":29,
						"path":"translation"
					}
				},
				{
					"sampler":103,
					"target":{
						"node":29,
						"path":"rotation"
					}
				},
				{
					"sampler":104,
					"target":{
						"node":29,
						"path":"scale"
					}
				},
				{
					"sampler":105,
					"target":{
						"node":28,
						"path":"translation"
					}
				},
				{
					"sampler":106,
					"target":{
						"node":28,
						"path":"rotation"
					}
				},
				{
					"sampler":107,
					"target":{
						"node":28,
						"path":"scale"
					}
				},
				{
					"sampler":108,
					"target":{
						"node":37,
						"path":"translation"
					}
				},
				{
					"sampler":109,
					"target":{
						"node":37,
						"path":"rotation"
					}
				},
				{
					"sampler":110,
					"target":{
						"node":37,
						"path":"scale"
					}
				}
			],
			"name":"rig|rig|walk",
			"samplers":[
				{
					"input":7,
					"interpolation":"STEP",
					"output":8
				},
				{
					"input":7,
					"interpolation":"STEP",
					"output":9
				},
				{
					"input":7,
					"interpolation":"STEP",
					"output":10
				},
				{
					"input":7,
					"interpolation":"STEP",
					"output":11
				},
				{
					"input":12,
					"interpolation":"LINEAR",
					"output":13
				},
				{
					"input":7,
					"interpolation":"STEP",
					"output":14
				},
				{
					"input":7,
					"interpolation":"STEP",
					"output":15
				},
				{
					"input":12,
					"interpolation":"LINEAR",
					"output":16
				},
				{
					"input":7,
					"interpolation":"STEP",
					"output":17
				},
				{
					"input":7,
					"interpolation":"STEP",
					"output":18
				},
				{
					"input":12,
					"interpolation":"LINEAR",
					"output":19
				},
				{
					"input":7,
					"interpolation":"STEP",
					"output":20
				},
				{
					"input":7,
					"interpolation":"STEP",
					"output":21
				},
				{
					"input":12,
					"interpolation":"LINEAR",
					"output":22
				},
				{
					"input":7,
					"interpolation":"STEP",
					"output":23
				},
				{
					"input":7,
					"interpolation":"STEP",
					"output":24
				},
				{
					"input":12,
					"interpolation":"LINEAR",
					"output":25
				},
				{
					"input":7,
					"interpolation":"STEP",
					"output":26
				},
				{
					"input":7,
					"interpolation":"STEP",
					"output":27
				},
				{
					"input":12,
					"interpolation":"LINEAR",
					"output":28
				},
				{
					"input":7,
					"interpolation":"STEP",
					"output":29
				},
				{
					"input":7,
					"interpolation":"STEP",
					"output":30
				},
				{
					"input":12,
					"interpolation":"LINEAR",
					"output":31
				},
				{
					"input":7,
					"interpolation":"STEP",
					"output":32
				},
				{
					"input":7,
					"interpolation":"STEP",
					"output":33
				},
				{
					"input":12,
					"interpolation":"LINEAR",
					"output":34
				},
				{
					"input":7,
					"interpolation":"STEP",
					"output":35
				},
				{
					"input":7,
					"interpolation":"STEP",
					"output":36
				},
				{
					"input":12,
					"interpolation":"LINEAR",
					"output":37
				},
				{
					"input":7,
					"interpolation":"STEP",
					"output":38
				},
				{
					"input":7,
					"interpolation":"STEP",
					"output":39
				},
				{
					"input":12,
					"interpolation":"LINEAR",
					"output":40
				},
				{
					"input":7,
					"interpolation":"STEP",
					"output":41
				},
				{
					"input":7,
					"interpolation":"STEP",
					"output":42
				},
				{
					"input":12,
					"interpolation":"LINEAR",
					"output":43
				},
				{
					"input":7,
					"interpolation":"STEP",
					"output":44
				},
				{
					"input":7,
					"interpolation":"STEP",
					"output":45
				},
				{
					"input":12,
					"interpolation":"LINEAR",
					"output":46
				},
				{
					"input":7,
					"interpolation":"STEP",
					"output":47
				},
				{
					"input":7,
					"interpolation":"STEP",
					"output":48
				},
				{
					"input":12,
					"interpolation":"LINEAR",
					"output":49
				},
				{
					"input":7,
					"interpolation":"STEP",
					"output":50
				},
				{
					"input":7,
					"interpolation":"STEP",
					"output":51
				},
				{
					"input":12,
					"interpolation":"LINEAR",
					"output":52
				},
				{
					"input":7,
					"interpolation":"STEP",
					"output":53
				},
				{
					"input":7,
					"interpolation":"STEP",
					"output":54
				},
				{
					"input":12,
					"interpolation":"LINEAR",
					"output":55
				},
				{
					"input":7,
					"interpolation":"STEP",
					"output":56
				},
				{
					"input":7,
					"interpolation":"STEP",
					"output":57
				},
				{
					"input":12,
					"interpolation":"LINEAR",
					"output":58
				},
				{
					"input":7,
					"interpolation":"STEP",
					"output":59
				},
				{
					"input":7,
					"interpolation":"STEP",
					"output":60
				},
				{
					"input":12,
					"interpolation":"LINEAR",
					"output":61
				},
				{
					"input":7,
					"interpolation":"STEP",
					"output":62
				},
				{
					"input":7,
					"interpolation":"STEP",
					"output":63
				},
				{
					"input":12,
					"interpolation":"LINEAR",
					"output":64
				},
				{
					"input":7,
					"interpolation":"STEP",
					"output":65
				},
				{
					"input":7,
					"interpolation":"STEP",
					"output":66
				},
				{
					"input":12,
					"interpolation":"LINEAR",
					"output":67
				},
				{
					"input":7,
					"interpolation":"STEP",
					"output":68
				},
				{
					"input":7,
					"interpolation":"STEP",
					"output":69
				},
				{
					"input":12,
					"interpolation":"LINEAR",
					"output":70
				},
				{
					"input":7,
					"interpolation":"STEP",
					"output":71
				},
				{
					"input":7,
					"interpolation":"STEP",
					"output":72
				},
				{
					"input":12,
					"interpolation":"LINEAR",
					"output":73
				},
				{
					"input":7,
					"interpolation":"STEP",
					"output":74
				},
				{
					"input":7,
					"interpolation":"STEP",
					"output":75
				},
				{
					"input":12,
					"interpolation":"LINEAR",
					"output":76
				},
				{
					"input":7,
					"interpolation":"STEP",
					"output":77
				},
				{
					"input":7,
					"interpolation":"STEP",
					"output":78
				},
				{
					"input":12,
					"interpolation":"LINEAR",
					"output":79
				},
				{
					"input":7,
					"interpolation":"STEP",
					"output":80
				},
				{
					"input":7,
					"interpolation":"STEP",
					"output":81
				},
				{
					"input":12,
					"interpolation":"LINEAR",
					"output":82
				},
				{
					"input":7,
					"interpolation":"STEP",
					"output":83
				},
				{
					"input":7,
					"interpolation":"STEP",
					"output":84
				},
				{
					"input":12,
					"interpolation":"LINEAR",
					"output":85
				},
				{
					"input":7,
					"interpolation":"STEP",
					"output":86
				},
				{
					"input":7,
					"interpolation":"STEP",
					"output":87
				},
				{
					"input":12,
					"interpolation":"LINEAR",
					"output":88
				},
				{
					"input":7,
					"interpolation":"STEP",
					"output":89
				},
				{
					"input":7,
					"interpolation":"STEP",
					"output":90
				},
				{
					"input":12,
					"interpolation":"LINEAR",
					"output":91
				},
				{
					"input":7,
					"interpolation":"STEP",
					"output":92
				},
				{
					"input":7,
					"interpolation":"STEP",
					"output":93
				},
				{
					"input":12,
					"interpolation":"LINEAR",
					"output":94
				},
				{
					"input":7,
					"interpolation":"STEP",
					"output":95
				},
				{
					"input":7,
					"interpolation":"STEP",
					"output":96
				},
				{
					"input":12,
					"interpolation":"LINEAR",
					"output":97
				},
				{
					"input":7,
					"interpolation":"STEP",
					"output":98
				},
				{
					"input":7,
					"interpolation":"STEP",
					"output":99
				},
				{
					"input":12,
					"interpolation":"LINEAR",
					"output":100
				},
				{
					"input":7,
					"interpolation":"STEP",
					"output":101
				},
				{
					"input":7,
					"interpolation":"STEP",
					"output":102
				},
				{
					"input":12,
					"interpolation":"LINEAR",
					"output":103
				},
				{
					"input":7,
					"interpolation":"STEP",
					"output":104
				},
				{
					"input":7,
					"interpolation":"STEP",
					"output":105
				},
				{
					"input":12,
					"interpolation":"LINEAR",
					"output":106
				},
				{
					"input":7,
					"interpolation":"STEP",
					"output":107
				},
				{
					"input":7,
					"interpolation":"STEP",
					"output":108
				},
				{
					"input":12,
					"interpolation":"LINEAR",
					"output":109
				},
				{
					"input":7,
					"interpolation":"STEP",
					"output":110
				},
				{
					"input":7,
					"interpolation":"STEP",
					"output":111
				},
				{
					"input":12,
					"interpolation":"LINEAR",
					"output":112
				},
				{
					"input":7,
					"interpolation":"STEP",
					"output":113
				},
				{
					"input":7,
					"interpolation":"LINEAR",
					"output":114
				},
				{
					"input":12,
					"interpolation":"LINEAR",
					"output":115
				},
				{
					"input":7,
					"interpolation":"STEP",
					"output":116
				},
				{
					"input":7,
					"interpolation":"STEP",
					"output":117
				},
				{
					"input":7,
					"interpolation":"STEP",
					"output":118
				},
				{
					"input":7,
					"interpolation":"STEP",
					"output":119
				}
			]
		}
	],
	"materials":[
		{
			"doubleSided":true,
			"name":"Cat",
			"pbrMetallicRoughness":{
				"baseColorFactor":[
					0.800000011920929,
					0.800000011920929,
					0.800000011920929,
					1
				],
				"metallicFactor":0,
				"roughnessFactor":0.5
			}
		}
	],
	"meshes":[
		{
			"name":"12221_Cat_v1_l3",
			"primitives":[
				{
					"attributes":{
						"POSITION":0,
						"NORMAL":1,
						"TEXCOORD_0":2,
						"JOINTS_0":3,
						"WEIGHTS_0":4
					},
					"indices":5,
					"material":0
				}
			]
		}
	],
	"skins":[
		{
			"inverseBindMatrices":6,
			"joints":[
				35,
				34,
				14,
				13,
				2,
				1,
				0,
				7,
				6,
				5,
				4,
				3,
				12,
				11,
				10,
				9,
				8,
				33,
				22,
				21,
				20,
				19,
				18,
				17,
				16,
				15,
				27,
				26,
				25,
				24,
				23,
				32,
				31,
				30,
				29,
				28
			],
			"name":"rig"
		}
	],
	"accessors":[
		{
			"bufferView":0,
			"componentType":5126,
			"count":10413,
			"max":[
				8.406042098999023,
				26.55817413330078,
				41.606693267822266
			],
			"min":[
				-9.794132232666016,
				-26.080333709716797,
				-41.91215896606445
			],
			"type":"VEC3"
		},
		{
			"bufferView":1,
			"componentType":5126,
			"count":10413,
			"type":"VEC3"
		},
		{
			"bufferView":2,
			"componentType":5126,
			"count":10413,
			"type":"VEC2"
		},
		{
			"bufferView":3,
			"componentType":5121,
			"count":10413,
			"type":"VEC4"
		},
		{
			"bufferView":4,
			"componentType":5126,
			"count":10413,
			"type":"VEC4"
		},
		{
			"bufferView":5,
			"componentType":5123,
			"count":58686,
			"type":"SCALAR"
		},
		{
			"bufferView":6,
			"componentType":5126,
			"count":36,
			"type":"MAT4"
		},
		{
			"bufferView":7,
			"componentType":5126,
			"count":2,
			"max":[
				1.0333333333333334
			],
			"min":[
				0.03333333333333333
			],
			"type":"SCALAR"
		},
		{
			"bufferView":8,
			"componentType":5126,
			"count":2,
			"type":"VEC3"
		},
		{
			"bufferView":9,
			"componentType":5126,
			"count":2,
			"type":"VEC4"
		},
		{
			"bufferView":10,
			"componentType":5126,
			"count":2,
			"type":"VEC3"
		},
		{
			"bufferView":11,
			"componentType":5126,
			"count":2,
			"type":"VEC3"
		},
		{
			"bufferView":12,
			"componentType":5126,
			"count":31,
			"max":[
				1.0333333333333334
			],
			"min":[
				0.03333333333333333
			],
			"type":"SCALAR"
		},
		{
			"bufferView":13,
			"componentType":5126,
			"count":31,
			"type":"VEC4"
		},
		{
			"bufferView":14,
			"componentType":5126,
			"count":2,
			"type":"VEC3"
		},
		{
			"bufferView":15,
			"componentType":5126,
			"count":2,
			"type":"VEC3"
		},
		{
			"bufferView":16,
			"componentType":5126,
			"count":31,
			"type":"VEC4"
		},
		{
			"bufferView":17,
			"componentType":5126,
			"count":2,
			"type":"VEC3"
		},
		{
			"bufferView":18,
			"componentType":5126,
			"count":2,
			"type":"VEC3"
		},
		{
			"bufferView":19,
			"componentType":5126,
			"count":31,
			"type":"VEC4"
		},
		{
			"bufferView":20,
			"componentType":5126,
			"count":2,
			"type":"VEC3"
		},
		{
			"bufferView":21,
			"componentType":5126,
			"count":2,
			"type":"VEC3"
		},
		{
			"bufferView":22,
			"componentType":5126,
			"count":31,
			"type":"VEC4"
		},
		{
			"bufferView":23,
			"componentType":5126,
			"count":2,
			"type":"VEC3"
		},
		{
			"bufferView":24,
			"componentType":5126,
			"count":2,
			"type":"VEC3"
		},
		{
			"bufferView":25,
			"componentType":5126,
			"count":31,
			"type":"VEC4"
		},
		{
			"bufferView":26,
			"componentType":5126,
			"count":2,
			"type":"VEC3"
		},
		{
			"bufferView":27,
			"componentType":5126,
			"count":2,
			"type":"VEC3"
		},
		{
			"bufferView":28,
			"componentType":5126,
			"count":31,
			"type":"VEC4"
		},
		{
			"bufferView":29,
			"componentType":5126,
			"count":2,
			"type":"VEC3"
		},
		{
			"bufferView":30,
			"componentType":5126,
			"count":2,
			"type":"VEC3"
		},
		{
			"bufferView":31,
			"componentType":5126,
			"count":31,
			"type":"VEC4"
		},
		{
			"bufferView":32,
			"componentType":5126,
			"count":2,
			"type":"VEC3"
		},
		{
			"bufferView":33,
			"componentType":5126,
			"count":2,
			"type":"VEC3"
		},
		{
			"bufferView":34,
			"componentType":5126,
			"count":31,
			"type":"VEC4"
		},
		{
			"bufferView":35,
			"componentType":5126,
			"count":2,
			"type":"VEC3"
		},
		{
			"bufferView":36,
			"componentType":5126,
			"count":2,
			"type":"VEC3"
		},
		{
			"bufferView":37,
			"componentType":5126,
			"count":31,
			"type":"VEC4"
		},
		{
			"bufferView":38,
			"componentType":5126,
			"count":2,
			"type":"VEC3"
		},
		{
			"bufferView":39,
			"componentType":5126,
			"count":2,
			"type":"VEC3"
		},
		{
			"bufferView":40,
			"componentType":5126,
			"count":31,
			"type":"VEC4"
		},
		{
			"bufferView":41,
			"componentType":5126,
			"count":2,
			"type":"VEC3"
		},
		{
			"bufferView":42,
			"componentType":5126,
			"count":2,
			"type":"VEC3"
		},
		{
			"bufferView":43,
			"componentType":5126,
			"count":31,
			"type":"VEC4"
		},
		{
			"bufferView":44,
			"componentType":5126,
			"count":2,
			"type":"VEC3"
		},
		{
			"bufferView":45,
			"componentType":5126,
			"count":2,
			"type":"VEC3"
		},
		{
			"bufferView":46,
			"componentType":5126,
			"count":31,
			"type":"VEC4"
		},
		{
			"bufferView":47,
			"componentType":5126,
			"count":2,
			"type":"VEC3"
		},
		{
			"bufferView":48,
			"componentType":5126,
			"count":2,
			"type":"VEC3"
		},
		{
			"bufferView":49,
			"componentType":5126,
			"count":31,
			"type":"VEC4"
		},
		{
			"bufferView":50,
			"componentType":5126,
			"count":2,
			"type":"VEC3"
		},
		{
			"bufferView":51,
			"componentType":5126,
			"count":2,
			"type":"VEC3"
		},
		{
			"bufferView":52,
			"componentType":5126,
			"count":31,
			"type":"VEC4"
		},
		{
			"bufferView":53,
			"componentType":5126,
			"count":2,
			"type":"VEC3"
		},
		{
			"bufferView":54,
			"componentType":5126,
			"count":2,
			"type":"VEC3"
		},
		{
			"bufferView":55,
			"componentType":5126,
			"count":31,
			"type":"VEC4"
		},
		{
			"bufferView":56,
			"componentType":5126,
			"count":2,
			"type":"VEC3"
		},
		{
			"bufferView":57,
			"componentType":5126,
			"count":2,
			"type":"VEC3"
		},
		{
			"bufferView":58,
			"componentType":5126,
			"count":31,
			"type":"VEC4"
		},
		{
			"bufferView":59,
			"componentType":5126,
			"count":2,
			"type":"VEC3"
		},
		{
			"bufferView":60,
			"componentType":5126,
			"count":2,
			"type":"VEC3"
		},
		{
			"bufferView":61,
			"componentType":5126,
			"count":31,
			"type":"VEC4"
		},
		{
			"bufferView":62,
			"componentType":5126,
			"count":2,
			"type":"VEC3"
		},
		{
			"bufferView":63,
			"componentType":5126,
			"count":2,
			"type":"VEC3"
		},
		{
			"bufferView":64,
			"componentType":5126,
			"count":31,
			"type":"VEC4"
		},
		{
			"bufferView":65,
			"componentType":5126,
			"count":2,
			"type":"VEC3"
		},
		{
			"bufferView":66,
			"componentType":5126,
			"count":2,
			"type":"VEC3"
		},
		{
			"bufferView":67,
			"componentType":5126,
			"count":31,
			"type":"VEC4"
		},
		{
			"bufferView":68,
			"componentType":5126,
			"count":2,
			"type":"VEC3"
		},
		{
			"bufferView":69,
			"componentType":5126,
			"count":2,
			"type":"VEC3"
		},
		{
			"bufferView":70,
			"componentType":5126,
			"count":31,
			"type":"VEC4"
		},
		{
			"bufferView":71,
			"componentType":5126,
			"count":2,
			"type":"VEC3"
		},
		{
			"bufferView":72,
			"componentType":5126,
			"count":2,
			"type":"VEC3"
		},
		{
			"bufferView":73,
			"componentType":5126,
			"count":31,
			"type":"VEC4"
		},
		{
			"bufferView":74,
			"componentType":5126,
			"count":2,
			"type":"VEC3"
		},
		{
			"bufferView":75,
			"componentType":5126,
			"count":2,
			"type":"VEC3"
		},
		{
			"bufferView":76,
			"componentType":5126,
			"count":31,
			"type":"VEC4"
		},
		{
			"bufferView":77,
			"componentType":5126,
			"count":2,
			"type":"VEC3"
		},
		{
			"bufferView":78,
			"componentType":5126,
			"count":2,
			"type":"VEC3"
		},
		{
			"bufferView":79,
			"componentType":5126,
			"count":31,
			"type":"VEC4"
		},
		{
			"bufferView":80,
			"componentType":5126,
			"count":2,
			"type":"VEC3"
		},
		{
			"bufferView":81,
			"componentType":5126,
			"count":2,
			"type":"VEC3"
		},
		{
			"bufferView":82,
			"componentType":5126,
			"count":31,
			"type":"VEC4"
		},
		{
			"bufferView":83,
			"componentType":5126,
			"count":2,
			"type":"VEC3"
		},
		{
			"bufferView":84,
			"componentType":5126,
			"count":2,
			"type":"VEC3"
		},
		{
			"bufferView":85,
			"componentType":5126,
			"count":31,
			"type":"VEC4"
		},
		{
			"bufferView":86,
			"componentType":5126,
			"count":2,
			"type":"VEC3"
		},
		{
			"bufferView":87,
			"componentType":5126,
			"count":2,
			"type":"VEC3"
		},
		{
			"bufferView":88,
			"componentType":5126,
			"count":31,
			"type":"VEC4"
		},
		{
			"bufferView":89,
			"componentType":5126,
			"count":2,
			"type":"VEC3"
		},
		{
			"bufferView":90,
			"componentType":5126,
			"count":2,
			"type":"VEC3"
		},
		{
			"bufferView":91,
			"componentType":5126,
			"count":31,
			"type":"VEC4"
		},
		{
			"bufferView":92,
			"componentType":5126,
			"count":2,
			"type":"VEC3"
		},
		{
			"bufferView":93,
			"componentType":5126,
			"count":2,
			"type":"VEC3"
		},
		{
			"bufferView":94,
			"componentType":5126,
			"count":31,
			"type":"VEC4"
		},
		{
			"bufferView":95,
			"componentType":5126,
			"count":2,
			"type":"VEC3"
		},
		{
			"bufferView":96,
			"componentType":5126,
			"count":2,
			"type":"VEC3"
		},
		{
			"bufferView":97,
			"componentType":5126,
			"count":31,
			"type":"VEC4"
		},
		{
			"bufferView":98,
			"componentType":5126,
			"count":2,
			"type":"VEC3"
		},
		{
			"bufferView":99,
			"componentType":5126,
			"count":2,
			"type":"VEC3"
		},
		{
			"bufferView":100,
			"componentType":5126,
			"count":31,
			"type":"VEC4"
		},
		{
			"bufferView":101,
			"componentType":5126,
			"count":2,
			"type":"VEC3"
		},
		{
			"bufferView":102,
			"componentType":5126,
			"count":2,
			"type":"VEC3"
		},
		{
			"bufferView":103,
			"componentType":5126,
			"count":31,
			"type":"VEC4"
		},
		{
			"bufferView":104,
			"componentType":5126,
			"count":2,
			"type":"VEC3"
		},
		{
			"bufferView":105,
			"componentType":5126,
			"count":2,
			"type":"VEC3"
		},
		{
			"bufferView":106,
			"componentType":5126,
			"count":31,
			"type":"VEC4"
		},
		{
			"bufferView":107,
			"componentType":5126,
			"count":2,
			"type":"VEC3"
		},
		{
			"bufferView":108,
			"componentType":5126,
			"count":2,
			"type":"VEC3"
		},
		{
			"bufferView":109,
			"componentType":5126,
			"count":31,
			"type":"VEC4"
		},
		{
			"bufferView":110,
			"componentType":5126,
			"count":2,
			"type":"VEC3"
		},
		{
			"bufferView":111,
			"componentType":5126,
			"count":2,
			"type":"VEC3"
		},
		{
			"bufferView":112,
			"componentType":5126,
			"count":31,
			"type":"VEC4"
		},
		{
			"bufferView":113,
			"componentType":5126,
			"count":2,
			"type":"VEC3"
		},
		{
			"bufferView":114,
			"componentType":5126,
			"count":2,
			"type":"VEC3"
		},
		{
			"bufferView":115,
			"componentType":5126,
			"count":31,
			"type":"VEC4"
		},
		{
			"bufferView":116,
			"componentType":5126,
			"count":2,
			"type":"VEC3"
		},
		{
			"bufferView":117,
			"componentType":5126,
			"count":2,
			"type":"VEC3"
		},
		{
			"bufferView":118,
			"componentType":5126,
			"count":2,
			"type":"VEC4"
		},
		{
			"bufferView":119,
			"componentType":5126,
			"count":2,
			"type":"VEC3"
		}
	],
	"bufferViews":[
		{
			"buffer":0,
			"byteLength":124956,
			"byteOffset":0,
			"target":34962
		},
		{
			"buffer":0,
			"byteLength":124956,
			"byteOffset":124956,
			"target":34962
		},
		{
			"buffer":0,
			"byteLength":83304,
			"byteOffset":249912,
			"target":34962
		},
		{
			"buffer":0,
			"byteLength":41652,
			"byteOffset":333216,
			"target":34962
		},
		{
			"buffer":0,
			"byteLength":166608,
			"byteOffset":374868,
			"target":34962
		},
		{
			"buffer":0,
			"byteLength":117372,
			"byteOffset":541476,
			"target":34963
		},
		{
			"buffer":0,
			"byteLength":2304,
			"byteOffset":658848
		},
		{
			"buffer":0,
			"byteLength":8,
			"byteOffset":661152
		},
		{
			"buffer":0,
			"byteLength":24,
			"byteOffset":661160
		},
		{
			"buffer":0,
			"byteLength":32,
			"byteOffset":661184
		},
		{
			"buffer":0,
			"byteLength":24,
			"byteOffset":661216
		},
		{
			"buffer":0,
			"byteLength":24,
			"byteOffset":661240
		},
		{
			"buffer":0,
			"byteLength":124,
			"byteOffset":661264
		},
		{
			"buffer":0,
			"byteLength":496,
			"byteOffset":661388
		},
		{
			"buffer":0,
			"byteLength":24,
			"byteOffset":661884
		},
		{
			"buffer":0,
			"byteLength":24,
			"byteOffset":661908
		},
		{
			"buffer":0,
			"byteLength":496,
			"byteOffset":661932
		},
		{
			"buffer":0,
			"byteLength":24,
			"byteOffset":662428
		},
		{
			"buffer":0,
			"byteLength":24,
			"byteOffset":662452
		},
		{
			"buffer":0,
			"byteLength":496,
			"byteOffset":662476
		},
		{
			"buffer":0,
			"byteLength":24,
			"byteOffset":662972
		},
		{
			"buffer":0,
			"byteLength":24,
			"byteOffset":662996
		},
		{
			"buffer":0,
			"byteLength":496,
			"byteOffset":663020
		},
		{
			"buffer":0,
			"byteLength":24,
			"byteOffset":663516
		},
		{
			"buffer":0,
			"byteLength":24,
			"byteOffset":663540
		},
		{
			"buffer":0,
			"byteLength":496,
			"byteOffset":663564
		},
		{
			"buffer":0,
			"byteLength":24,
			"byteOffset":664060
		},
		{
			"buffer":0,
			"byteLength":24,
			"byteOffset":664084
		},
		{
			"buffer":0,
			"byteLength":496,
			"byteOffset":664108
		},
		{
			"buffer":0,
			"byteLength":24,
			"byteOffset":664604
		},
		{
			"buffer":0,
			"byteLength":24,
			"byteOffset":664628
		},
		{
			"buffer":0,
			"byteLength":496,
			"byteOffset":664652
		},
		{
			"buffer":0,
			"byteLength":24,
			"byteOffset":665148
		},
		{
			"buffer":0,
			"byteLength":24,
			"byteOffset":665172
		},
		{
			"buffer":0,
			"byteLength":496,
			"byteOffset":665196
		},
		{
			"buffer":0,
			"byteLength":24,
			"byteOffset":665692
		},
		{
			"buffer":0,
			"byteLength":24,
			"byteOffset":665716
		},
		{
			"buffer":0,
			"byteLength":496,
			"byteOffset":665740
		},
		{
			"buffer":0,
			"byteLength":24,
			"byteOffset":666236
		},
		{
			"buffer":0,
			"byteLength":24,
			"byteOffset":666260
		},
		{
			"buffer":0,
			"byteLength":496,
			"byteOffset":666284
		},
		{
			"buffer":0,
			"byteLength":24,
			"byteOffset":666780
		},
		{
			"buffer":0,
			"byteLength":24,
			"byteOffset":666804
		},
		{
			"buffer":0,
			"byteLength":496,
			"byteOffset":666828
		},
		{
			"buffer":0,
			"byteLength":24,
			"byteOffset":667324
		},
		{
			"buffer":0,
			"byteLength":24,
			"byteOffset":667348
		},
		{
			"buffer":0,
			"byteLength":496,
			"byteOffset":667372
		},
		{
			"buffer":0,
			"byteLength":24,
			"byteOffset":667868
		},
		{
			"buffer":0,
			"byteLength":24,
			"byteOffset":667892
		},
		{
			"buffer":0,
			"byteLength":496,
			"byteOffset":667916
		},
		{
			"buffer":0,
			"byteLength":24,
			"byteOffset":668412
		},
		{
			"buffer":0,
			"byteLength":24,
			"byteOffset":668436
		},
		{
			"buffer":0,
			"byteLength":496,
			"byteOffset":668460
		},
		{
			"buffer":0,
			"byteLength":24,
			"byteOffset":668956
		},
		{
			"buffer":0,
			"byteLength":24,
			"byteOffset":668980
		},
		{
			"buffer":0,
			"byteLength":496,
			"byteOffset":669004
		},
		{
			"buffer":0,
			"byteLength":24,
			"byteOffset":669500
		},
		{
			"buffer":0,
			"byteLength":24,
			"byteOffset":669524
		},
		{
			"buffer":0,
			"byteLength":496,
			"byteOffset":669548
		},
		{
			"buffer":0,
			"byteLength":24,
			"byteOffset":670044
		},
		{
			"buffer":0,
			"byteLength":24,
			"byteOffset":670068
		},
		{
			"buffer":0,
			"byteLength":496,
			"byteOffset":670092
		},
		{
			"buffer":0,
			"byteLength":24,
			"byteOffset":670588
		},
		{
			"buffer":0,
			"byteLength":24,
			"byteOffset":670612
		},
		{
			"buffer":0,
			"byteLength":496,
			"byteOffset":670636
		},
		{
			"buffer":0,
			"byteLength":24,
			"byteOffset":671132
		},
		{
			"buffer":0,
			"byteLength":24,
			"byteOffset":671156
		},
		{
			"buffer":0,
			"byteLength":496,
			"byteOffset":671180
		},
		{
			"buffer":0,
			"byteLength":24,
			"byteOffset":671676
		},
		{
			"buffer":0,
			"byteLength":24,
			"byteOffset":671700
		},
		{
			"buffer":0,
			"byteLength":496,
			"byteOffset":671724
		},
		{
			"buffer":0,
			"byteLength":24,
			"byteOffset":672220
		},
		{
			"buffer":0,
			"byteLength":24,
			"byteOffset":672244
		},
		{
			"buffer":0,
			"byteLength":496,
			"byteOffset":672268
		},
		{
			"buffer":0,
			"byteLength":24,
			"byteOffset":672764
		},
		{
			"buffer":0,
			"byteLength":24,
			"byteOffset":672788
		},
		{
			"buffer":0,
			"byteLength":496,
			"byteOffset":672812
		},
		{
			"buffer":0,
			"byteLength":24,
			"byteOffset":673308
		},
		{
			"buffer":0,
			"byteLength":24,
			"byteOffset":673332
		},
		{
			"buffer":0,
			"byteLength":496,
			"byteOffset":673356
		},
		{
			"buffer":0,
			"byteLength":24,
			"byteOffset":673852
		},
		{
			"buffer":0,
			"byteLength":24,
			"byteOffset":673876
		},
		{
			"buffer":0,
			"byteLength":496,
			"byteOffset":673900
		},
		{
			"buffer":0,
			"byteLength":24,
			"byteOffset":674396
		},
		{
			"buffer":0,
			"byteLength":24,
			"byteOffset":674420
		},
		{
			"buffer":0,
			"byteLength":496,
			"byteOffset":674444
		},
		{
			"buffer":0,
			"byteLength":24,
			"byteOffset":674940
		},
		{
			"buffer":0,
			"byteLength":24,
			"byteOffset":674964
		},
		{
			"buffer":0,
			"byteLength":496,
			"byteOffset":674988
		},
		{
			"buffer":0,
			"byteLength":24,
			"byteOffset":675484
		},
		{
			"buffer":0,
			"byteLength":24,
			"byteOffset":675508
		},
		{
			"buffer":0,
			"byteLength":496,
			"byteOffset":675532
		},
		{
			"buffer":0,
			"byteLength":24,
			"byteOffset":676028
		},
		{
			"buffer":0,
			"byteLength":24,
			"byteOffset":676052
		},
		{
			"buffer":0,
			"byteLength":496,
			"byteOffset":676076
		},
		{
			"buffer":0,
			"byteLength":24,
			"byteOffset":676572
		},
		{
			"buffer":0,
			"byteLength":24,
			"byteOffset":676596
		},
		{
			"buffer":0,
			"byteLength":496,
			"byteOffset":676620
		},
		{
			"buffer":0,
			"byteLength":24,
			"byteOffset":677116
		},
		{
			"buffer":0,
			"byteLength":24,
			"byteOffset":677140
		},
		{
			"buffer":0,
			"byteLength":496,
			"byteOffset":677164
		},
		{
			"buffer":0,
			"byteLength":24,
			"byteOffset":677660
		},
		{
			"buffer":0,
			"byteLength":24,
			"byteOffset":677684
		},
		{
			"buffer":0,
			"byteLength":496,
			"byteOffset":677708
		},
		{
			"buffer":0,
			"byteLength":24,
			"byteOffset":678204
		},
		{
			"buffer":0,
			"byteLength":24,
			"byteOffset":678228
		},
		{
			"buffer":0,
			"byteLength":496,
			"byteOffset":678252
		},
		{
			"buffer":0,
			"byteLength":24,
			"byteOffset":678748
		},
		{
			"buffer":0,
			"byteLength":24,
			"byteOffset":678772
		},
		{
			"buffer":0,
			"byteLength":496,
			"byteOffset":678796
		},
		{
			"buffer":0,
			"byteLength":24,
			"byteOffset":679292
		},
		{
			"buffer":0,
			"byteLength":24,
			"byteOffset":679316
		},
		{
			"buffer":0,
			"byteLength":496,
			"byteOffset":679340
		},
		{
			"buffer":0,
			"byteLength":24,
			"byteOffset":679836
		},
		{
			"buffer":0,
			"byteLength":24,
			"byteOffset":679860
		},
		{
			"buffer":0,
			"byteLength":496,
			"byteOffset":679884
		},
		{
			"buffer":0,
			"byteLength":24,
			"byteOffset":680380
		},
		{
			"buffer":0,
			"byteLength":24,
			"byteOffset":680404
		},
		{
			"buffer":0,
			"byteLength":32,
			"byteOffset":680428
		},
		{
			"buffer":0,
			"byteLength":24,
			"byteOffset":680460
		}
	],
	"buffers":[
		{
			"byteLength":680484,
			"uri":"data:application/octet-stream;base64,"
		}
	]
}
