{
	"asset":{
		"generator":"Khronos glTF Blender I/O v4.1.62",
		"version":"2.0"
	},
	"scene":0,
	"scenes":[
		{
			"name":"Scene",
			"nodes":[
				43
			]
		}
	],
	"nodes":[
		{
			"name":"head0_end",
			"rotation":[
				5.2299579778036787e-08,
				4.330649971961975e-08,
				2.0489096641540527e-08,
				1
			],
			"scale":[
				1,
				1.0000001192092896,
				1
			],
			"translation":[
				1.7881393432617188e-07,
				6.178775787353516,
				1.389533281326294e-06
			]
		},
		{
			"children":[
				0
			],
			"name":"head0",
			"rotation":[
				0.7857694029808044,
				-0.0010325341718271375,
				0.028515243902802467,
				0.6178610920906067
			],
			"scale":[
				1,
				0.9999999403953552,
				0.9999999403953552
			],
			"translation":[
				-3.725290298461914e-08,
				7.7686052322387695,
				2.625631168484688e-06
			]
		},
		{
			"children":[
				1
			],
			"name":"neck1",
			"rotation":[
				-0.1675058752298355,
				0.0010493667796254158,
				-0.0018004358280450106,
				0.9858689308166504
			],
			"scale":[
				0.9999998807907104,
				0.9999999403953552,
				0.9999998807907104
			],
			"translation":[
				-2.9802322387695312e-08,
				6.922010898590088,
				-5.452428013086319e-06
			]
		},
		{
			"children":[
				2
			],
			"name":"neck0",
			"rotation":[
				-0.4214553236961365,
				0.003903565928339958,
				-0.0011714039137586951,
				0.9068400263786316
			],
			"scale":[
				1,
				1.0000001192092896,
				1
			],
			"translation":[
				-1.043081283569336e-07,
				8.428153991699219,
				-5.067791789770126e-06
			]
		},
		{
			"name":"leg_front_left_toe_end",
			"rotation":[
				-7.450489114546599e-09,
				-3.336463123559952e-07,
				-3.2037502251114347e-07,
				1
			],
			"scale":[
				1,
				0.9999998807907104,
				1
			],
			"translation":[
				-1.0804797057062387e-08,
				2.999990463256836,
				-1.1074685062339995e-06
			]
		},
		{
			"children":[
				4
			],
			"name":"leg_front_left_toe",
			"rotation":[
				-0.6183162927627563,
				0.0703880712389946,
				0.07038799673318863,
				0.7795999050140381
			],
			"scale":[
				0.9999999403953552,
				1.0000001192092896,
				1.0000001192092896
			],
			"translation":[
				2.9802322387695312e-08,
				5.544210910797119,
				7.152557373046875e-07
			]
		},
		{
			"children":[
				5
			],
			"name":"leg_front_left_ankle",
			"rotation":[
				-0.15052981674671173,
				-0.4373319447040558,
				-0.03529811650514603,
				0.8859094977378845
			],
			"scale":[
				1,
				0.9999998807907104,
				1
			],
			"translation":[
				1.6689300537109375e-06,
				8.8345947265625,
				2.0265579223632812e-06
			]
		},
		{
			"children":[
				6
			],
			"name":"leg_front_left_bot0",
			"rotation":[
				0.015210568904876709,
				-0.9775615334510803,
				0.05184834823012352,
				0.20360195636749268
			],
			"scale":[
				0.9999999403953552,
				1,
				0.9999999403953552
			],
			"translation":[
				1.4901161193847656e-07,
				6.231253147125244,
				-1.1771917343139648e-06
			]
		},
		{
			"children":[
				7
			],
			"name":"leg_front_left_top1",
			"rotation":[
				0.06142690032720566,
				-0.8620473146438599,
				-0.2728457450866699,
				0.4226776659488678
			],
			"translation":[
				6.556510925292969e-07,
				9.019105911254883,
				-7.152557373046875e-07
			]
		},
		{
			"children":[
				8
			],
			"name":"leg_front_left_top0",
			"rotation":[
				0.44992807507514954,
				-0.2188570499420166,
				-0.20941618084907532,
				0.8401256799697876
			],
			"scale":[
				1,
				1.0000001192092896,
				1.0000001192092896
			],
			"translation":[
				3.6658763885498047,
				2.064856767654419,
				4.867529392242432
			]
		},
		{
			"name":"leg_front_right_toe_end",
			"rotation":[
				-2.2351681394638945e-08,
				-7.202237384262844e-08,
				-1.3907757079323346e-07,
				1
			],
			"translation":[
				-5.216224963078275e-08,
				2.999993324279785,
				1.1662730230455054e-06
			]
		},
		{
			"children":[
				10
			],
			"name":"leg_front_right_toe",
			"rotation":[
				-0.48120033740997314,
				-0.39624810218811035,
				-0.3962482810020447,
				0.674107551574707
			],
			"scale":[
				1.0000001192092896,
				1.0000001192092896,
				0.9999998807907104
			],
			"translation":[
				0,
				5.6087236404418945,
				-4.76837158203125e-07
			]
		},
		{
			"children":[
				11
			],
			"name":"leg_front_right_ankle",
			"rotation":[
				-0.16650475561618805,
				0.9522812366485596,
				0.04479131102561951,
				0.2518538236618042
			],
			"scale":[
				0.9999998807907104,
				1.0000004768371582,
				1
			],
			"translation":[
				2.384185791015625e-07,
				8.904409408569336,
				2.682209014892578e-07
			]
		},
		{
			"children":[
				12
			],
			"name":"leg_front_right_bot0",
			"rotation":[
				0.07838928699493408,
				0.03830325976014137,
				-0.06997914612293243,
				0.9937257766723633
			],
			"scale":[
				0.9999998807907104,
				0.9999998807907104,
				1
			],
			"translation":[
				-7.450580596923828e-07,
				6.234729290008545,
				3.5762786865234375e-07
			]
		},
		{
			"children":[
				13
			],
			"name":"leg_front_right_top1",
			"rotation":[
				0.17313838005065918,
				-0.840665876865387,
				-0.19044138491153717,
				0.4764830768108368
			],
			"scale":[
				0.9999999403953552,
				0.9999997019767761,
				0.9999998807907104
			],
			"translation":[
				9.5367431640625e-07,
				9.027727127075195,
				1.9073486328125e-06
			]
		},
		{
			"children":[
				14
			],
			"name":"leg_front_right_top0",
			"rotation":[
				0.44697287678718567,
				0.21036022901535034,
				0.21172313392162323,
				0.8432894945144653
			],
			"scale":[
				1.0000001192092896,
				1.0000001192092896,
				1
			],
			"translation":[
				-3.9324474334716797,
				2.1550257205963135,
				4.775639057159424
			]
		},
		{
			"children":[
				3,
				9,
				15
			],
			"name":"body_top1",
			"rotation":[
				-0.09005559235811234,
				-0.0014772929716855288,
				-0.0025183921679854393,
				0.9959324598312378
			],
			"scale":[
				1,
				1,
				0.9999998211860657
			],
			"translation":[
				2.2351741790771484e-08,
				7.016119956970215,
				1.9157305359840393e-06
			]
		},
		{
			"children":[
				16
			],
			"name":"body_top0",
			"rotation":[
				0.028390290215611458,
				0.010328798554837704,
				0.008864120580255985,
				0.9995042681694031
			],
			"scale":[
				0.9999999403953552,
				1.0000001192092896,
				1.0000001192092896
			],
			"translation":[
				-0.005139056593179703,
				7.167177677154541,
				-1.5134087800979614
			]
		},
		{
			"name":"tail6_end",
			"rotation":[
				-2.9546208679676056e-07,
				-5.3085390305795954e-08,
				9.778888809819364e-09,
				1
			],
			"scale":[
				0.9999999403953552,
				0.9999999403953552,
				1
			],
			"translation":[
				5.811452865600586e-07,
				2.2907464504241943,
				5.662441253662109e-07
			]
		},
		{
			"children":[
				18
			],
			"name":"tail6",
			"rotation":[
				-0.04338306933641434,
				0.04092774540185928,
				-0.040122706443071365,
				0.997413158416748
			],
			"scale":[
				1,
				1,
				1.0000001192092896
			],
			"translation":[
				2.2351741790771484e-08,
				4.110350131988525,
				-3.762543201446533e-07
			]
		},
		{
			"children":[
				19
			],
			"name":"tail5",
			"rotation":[
				0.0032565223518759012,
				0.0015290199080482125,
				-0.0013205136638134718,
				0.9999926686286926
			],
			"scale":[
				1,
				1,
				1.0000001192092896
			],
			"translation":[
				1.341104507446289e-07,
				4.462623596191406,
				-3.650784492492676e-07
			]
		},
		{
			"children":[
				20
			],
			"name":"tail4",
			"rotation":[
				0.008059106767177582,
				0.005316207651048899,
				-0.004701241850852966,
				0.9999423623085022
			],
			"scale":[
				0.9999999403953552,
				1,
				0.9999999403953552
			],
			"translation":[
				2.9802322387695312e-08,
				4.215742111206055,
				-6.984919309616089e-07
			]
		},
		{
			"children":[
				21
			],
			"name":"tail3",
			"rotation":[
				0.05218425393104553,
				-0.011439389549195766,
				0.01177148800343275,
				0.9985025525093079
			],
			"scale":[
				1.0000001192092896,
				1,
				1
			],
			"translation":[
				-4.470348358154297e-08,
				3.4728281497955322,
				4.76837158203125e-07
			]
		},
		{
			"children":[
				22
			],
			"name":"tail2",
			"rotation":[
				-0.0040152729488909245,
				0.01129529532045126,
				-0.009532129392027855,
				0.9998827576637268
			],
			"translation":[
				-6.705522537231445e-08,
				3.9186878204345703,
				-3.7997961044311523e-07
			]
		},
		{
			"children":[
				23
			],
			"name":"tail1",
			"rotation":[
				0.05670307204127312,
				0.001537134638056159,
				0.0001277475239476189,
				0.9983898997306824
			],
			"scale":[
				0.9999999403953552,
				1,
				1
			],
			"translation":[
				7.450580596923828e-08,
				5.576427459716797,
				2.123415470123291e-07
			]
		},
		{
			"children":[
				24
			],
			"name":"tail0",
			"rotation":[
				0.007145549636334181,
				-0.04358721151947975,
				0.03254492208361626,
				0.9984938502311707
			],
			"scale":[
				1,
				1.0000001192092896,
				1
			],
			"translation":[
				2.980232238769531e-07,
				6.272424697875977,
				-2.5331974029541016e-07
			]
		},
		{
			"children":[
				25
			],
			"name":"pelvis",
			"rotation":[
				0.3560314476490021,
				0.0809590145945549,
				-0.027258213609457016,
				0.9305612444877625
			],
			"scale":[
				1,
				0.9999999403953552,
				0.9999998807907104
			],
			"translation":[
				0.4601273834705353,
				3.495607614517212,
				5.007742404937744
			]
		},
		{
			"name":"leg_hind_right_toe_end",
			"rotation":[
				1.4901232248121232e-08,
				-2.120310966802208e-07,
				-1.5894576677055738e-07,
				1
			],
			"translation":[
				-5.045762918598484e-09,
				2.999999761581421,
				-3.0668951467305305e-07
			]
		},
		{
			"children":[
				27
			],
			"name":"leg_hind_right_toe",
			"rotation":[
				-0.5888983607292175,
				-0.10568863153457642,
				-0.10568899661302567,
				0.7942660450935364
			],
			"scale":[
				1,
				0.9999999403953552,
				1
			],
			"translation":[
				-8.344650268554688e-07,
				11.066743850708008,
				1.1920928955078125e-07
			]
		},
		{
			"children":[
				28
			],
			"name":"leg_hind_right_ankle",
			"rotation":[
				-0.40519869327545166,
				0.17317935824394226,
				-0.03621017932891846,
				0.8969458341598511
			],
			"scale":[
				1,
				1.0000001192092896,
				1.0000001192092896
			],
			"translation":[
				-2.9802322387695312e-08,
				5.9957499504089355,
				0
			]
		},
		{
			"children":[
				29
			],
			"name":"leg_hind_right_bot0",
			"rotation":[
				0.08087898045778275,
				0.31278231739997864,
				-0.09079162031412125,
				0.9420099258422852
			],
			"scale":[
				0.9999999403953552,
				1.0000001192092896,
				1
			],
			"translation":[
				-5.960464477539063e-08,
				9.703551292419434,
				-1.6689300537109375e-06
			]
		},
		{
			"children":[
				30
			],
			"name":"leg_hind_right_top1",
			"rotation":[
				-0.4357869625091553,
				0.8989696502685547,
				-0.0035766013897955418,
				0.043937403708696365
			],
			"scale":[
				0.9999998807907104,
				1,
				0.9999999403953552
			],
			"translation":[
				1.296401023864746e-06,
				5.4098076820373535,
				8.866190910339355e-07
			]
		},
		{
			"children":[
				31
			],
			"name":"leg_hind_right_top0",
			"rotation":[
				-0.4857165813446045,
				0.8171569108963013,
				-0.21632148325443268,
				0.2225736826658249
			],
			"scale":[
				0.9999999403953552,
				1,
				0.9999998807907104
			],
			"translation":[
				0,
				5.807912826538086,
				3.7206336855888367e-07
			]
		},
		{
			"name":"leg_hind_left_toe_end",
			"rotation":[
				-3.576276412786683e-07,
				7.947282654185983e-08,
				1.9868207346007694e-07,
				1
			],
			"translation":[
				-1.693832132332318e-07,
				2.9999969005584717,
				-6.094679747548071e-07
			]
		},
		{
			"children":[
				33
			],
			"name":"leg_hind_left_toe",
			"rotation":[
				-0.5419501066207886,
				0.18436302244663239,
				0.18436270952224731,
				0.7989435195922852
			],
			"scale":[
				0.9999998807907104,
				1,
				1
			],
			"translation":[
				2.384185791015625e-07,
				11.349580764770508,
				-4.76837158203125e-07
			]
		},
		{
			"children":[
				34
			],
			"name":"leg_hind_left_ankle",
			"rotation":[
				-0.46232348680496216,
				-0.34062665700912476,
				0.06184837967157364,
				0.8163365125656128
			],
			"scale":[
				1.0000001192092896,
				1,
				1.0000001192092896
			],
			"translation":[
				-8.344650268554688e-07,
				6.291281700134277,
				2.2351741790771484e-08
			]
		},
		{
			"children":[
				35
			],
			"name":"leg_hind_left_bot0",
			"rotation":[
				0.1501491218805313,
				-0.23185661435127258,
				0.09064552932977676,
				0.9568077921867371
			],
			"scale":[
				0.9999998807907104,
				0.9999999403953552,
				1.0000001192092896
			],
			"translation":[
				-6.556510925292969e-07,
				9.489436149597168,
				0
			]
		},
		{
			"children":[
				36
			],
			"name":"leg_hind_left_top1",
			"rotation":[
				0.4215067923069,
				0.9066690802574158,
				0.016752444207668304,
				0.0016250323969870806
			],
			"scale":[
				0.9999999403953552,
				0.9999999403953552,
				1
			],
			"translation":[
				-9.08970832824707e-07,
				5.274613857269287,
				-7.078051567077637e-07
			]
		},
		{
			"children":[
				37
			],
			"name":"leg_hind_left_top0",
			"rotation":[
				-0.48084887862205505,
				-0.8044154047966003,
				0.2267734706401825,
				0.26509249210357666
			],
			"scale":[
				1,
				1.0000003576278687,
				1
			],
			"translation":[
				0.6754454374313354,
				5.807985305786133,
				-0.025012776255607605
			]
		},
		{
			"children":[
				26,
				32,
				38
			],
			"name":"body_bot",
			"rotation":[
				0.8309317827224731,
				-0.008233285509049892,
				-0.009728753939270973,
				0.5562283396720886
			],
			"scale":[
				0.9999999403953552,
				1.0000001192092896,
				1
			],
			"translation":[
				0.24751728773117065,
				-5.9123101234436035,
				1.9279645681381226
			]
		},
		{
			"children":[
				17,
				39
			],
			"name":"body",
			"rotation":[
				0.7556450366973877,
				-1.1939716770825726e-08,
				-0.002357515739277005,
				0.6549771428108215
			],
			"translation":[
				0.2716582417488098,
				35.489891052246094,
				4.326775074005127
			]
		},
		{
			"children":[
				40
			],
			"name":"root",
			"rotation":[
				-0.7071031928062439,
				0,
				0,
				0.7071103453636169
			],
			"translation":[
				-0.6940450668334961,
				-0.15273284912109375,
				26.080333709716797
			]
		},
		{
			"mesh":0,
			"name":"12221_Cat_v1_l3",
			"skin":0
		},
		{
			"children":[
				42,
				41
			],
			"name":"rig",
			"rotation":[
				0.7071068286895752,
				0,
				0,
				0.7071068286895752
			]
		}
	],
	"materials":[
		{
			"doubleSided":true,
			"name":"Cat",
			"pbrMetallicRoughness":{
				"baseColorFactor":[
					0.800000011920929,
					0.800000011920929,
					0.800000011920929,
					1
				],
				"metallicFactor":0,
				"roughnessFactor":0.5
			}
		}
	],
	"meshes":[
		{
			"name":"12221_Cat_v1_l3",
			"primitives":[
				{
					"attributes":{
						"POSITION":0,
						"NORMAL":1,
						"TEXCOORD_0":2,
						"JOINTS_0":3,
						"WEIGHTS_0":4
					},
					"indices":5,
					"material":0
				}
			]
		}
	],
	"skins":[
		{
			"inverseBindMatrices":6,
			"joints":[
				41,
				40,
				17,
				16,
				3,
				2,
				1,
				0,
				9,
				8,
				7,
				6,
				5,
				4,
				15,
				14,
				13,
				12,
				11,
				10,
				39,
				26,
				25,
				24,
				23,
				22,
				21,
				20,
				19,
				18,
				32,
				31,
				30,
				29,
				28,
				27,
				38,
				37,
				36,
				35,
				34,
				33
			],
			"name":"rig"
		}
	],
	"accessors":[
		{
			"bufferView":0,
			"componentType":5126,
			"count":10413,
			"max":[
				8.40604305267334,
				26.55817413330078,
				41.606693267822266
			],
			"min":[
				-9.7941312789917,
				-26.08033561706543,
				-41.91215896606445
			],
			"type":"VEC3"
		},
		{
			"bufferView":1,
			"componentType":5126,
			"count":10413,
			"type":"VEC3"
		},
		{
			"bufferView":2,
			"componentType":5126,
			"count":10413,
			"type":"VEC2"
		},
		{
			"bufferView":3,
			"componentType":5121,
			"count":10413,
			"type":"VEC4"
		},
		{
			"bufferView":4,
			"componentType":5126,
			"count":10413,
			"type":"VEC4"
		},
		{
			"bufferView":5,
			"componentType":5123,
			"count":58686,
			"type":"SCALAR"
		},
		{
			"bufferView":6,
			"componentType":5126,
			"count":42,
			"type":"MAT4"
		}
	],
	"bufferViews":[
		{
			"buffer":0,
			"byteLength":124956,
			"byteOffset":0,
			"target":34962
		},
		{
			"buffer":0,
			"byteLength":124956,
			"byteOffset":124956,
			"target":34962
		},
		{
			"buffer":0,
			"byteLength":83304,
			"byteOffset":249912,
			"target":34962
		},
		{
			"buffer":0,
			"byteLength":41652,
			"byteOffset":333216,
			"target":34962
		},
		{
			"buffer":0,
			"byteLength":166608,
			"byteOffset":374868,
			"target":34962
		},
		{
			"buffer":0,
			"byteLength":117372,
			"byteOffset":541476,
			"target":34963
		},
		{
			"buffer":0,
			"byteLength":2688,
			"byteOffset":658848
		}
	],
	"buffers":[
		{
			"byteLength":661536,
			"uri":"12221_Cat_v1_l3.bin"
		}
	]
}
